<svg xmlns="http://www.w3.org/2000/svg" width="51.549" height="51.548" viewBox="0 0 51.549 51.548">
  <g id="Groupe_10496" data-name="Groupe 10496" transform="translate(-942 -151)">
    <g id="logo_vectoriel" transform="translate(942 151)">
      <path id="Tracé_995" data-name="Tracé 995" d="M199.26,210.267a25.774,25.774,0,1,0,25.774,25.774A25.774,25.774,0,0,0,199.26,210.267Zm0,48.365a22.591,22.591,0,1,1,22.591-22.591A22.591,22.591,0,0,1,199.26,258.632Z" transform="translate(-173.486 -210.267)" fill="#42475e"/>
      <path id="Tracé_996" data-name="Tracé 996" d="M244.493,261.232q-3.6-2.3-7.218-4.578-2.646-1.676-5.29-3.358a4.079,4.079,0,0,0-.366-.221c-.805-.4-1.3-.108-1.309.791-.012,1.994,0,3.989,0,5.984q0,1.034,0,2.067,0,3.852,0,7.7a3.767,3.767,0,0,0,.036.71c.153.793.6.995,1.274.57q6.263-3.953,12.52-7.919a2.72,2.72,0,0,0,.512-.382A.8.8,0,0,0,244.493,261.232Z" transform="translate(-209.067 -236.965)" fill="#42475e"/>
    </g>
  </g>
</svg>
