<?xml version="1.0" encoding="UTF-8" standalone="no"?>
<!DOCTYPE svg PUBLIC "-//W3C//DTD SVG 1.1//EN" "http://www.w3.org/Graphics/SVG/1.1/DTD/svg11.dtd">
<svg version="1.1" xmlns="http://www.w3.org/2000/svg" xmlns:xlink="http://www.w3.org/1999/xlink" preserveAspectRatio="xMidYMid meet" viewBox="0 0 639 200" width="639" height="200">
  <defs>
    <path d="M125.22 143.6C120.11 145.59 114.68 146.64 109.19 146.71C97.06 146.88 85.47 141.71 77.49 132.57C68.79 123.09 64.14 110.59 64.51 97.73C64.25 83.65 69.92 70.1 80.14 60.4C90.35 50.36 104.18 44.88 118.49 45.22C126.48 45.19 134.38 46.85 141.68 50.08C148.47 52.89 154.45 57.36 159.05 63.09C166.08 72.14 169.59 85.24 169.59 102.4C169.59 122.76 169.59 134.07 169.59 136.33C169.59 163.91 155.49 176.68 153.93 181.16C143.52 192.63 128.59 198.93 113.12 198.38C106.51 198.09 99.99 196.78 93.78 194.51C93.78 190.99 93.78 162.9 93.78 159.38C98.46 162.01 103.74 163.39 109.1 163.4C115.25 163.74 121.21 161.2 125.22 156.53C128.99 151.95 130.88 145.35 130.88 136.73C130.88 113.59 130.88 100.73 130.88 98.16C130.88 81.9 119.07 83.55 117.76 81.92C114.04 81.93 110.49 83.48 107.97 86.22C105.29 88.81 103.78 92.37 103.79 96.09C103.69 99.78 105.13 103.34 107.77 105.91C110.39 108.51 113.95 109.93 117.64 109.84C120.28 109.84 122.88 109.21 125.22 108C125.22 115.12 125.22 140.04 125.22 143.6Z" id="b1JTnGBqtg">

    </path>
    <path d="M371.94 2.52L371.94 42.28L389.44 42.28L389.44 83.4C378.94 83.4 373.1 83.4 371.94 83.4C371.37 89.33 372.74 95.28 375.84 100.36C379.7 103.96 384.94 105.68 390.18 105.06C390.18 107.8 390.18 121.47 390.18 146.09C387.5 146.09 386.01 146.09 385.71 146.09C377.01 146.14 368.44 144.04 360.77 139.96C353.19 136.08 346.72 130.35 341.96 123.3C335.56 112.58 332.48 100.2 333.11 87.72C333.11 82.04 333.11 53.64 333.11 2.52L371.94 2.52Z" id="bhcqbsz">

    </path>
    <path d="M461.44 145.98C444.1 149.01 426.34 143.59 413.65 131.39C392.44 110.21 392.41 75.85 413.59 54.64C423.81 44.4 437.7 38.67 452.17 38.72C466.83 37.97 481.15 43.3 491.76 53.45C501.85 64.34 507.09 78.86 506.29 93.69C506.29 97.08 506.29 114.05 506.29 144.59L467.49 144.59C467.49 115.75 467.49 99.72 467.49 96.52C467.72 91.81 466.3 87.17 463.48 83.4C460.85 80.17 456.86 78.36 452.7 78.5C444.24 78.63 437.48 85.59 437.6 94.05C437.65 97.83 439.11 101.46 441.67 104.24C444.37 107.01 448.1 108.52 451.97 108.4C455.32 108.41 458.61 107.47 461.44 105.68C461.44 113.74 461.44 141.95 461.44 145.98Z" id="ec6DJfz4K">

    </path>
    <path d="M575.55 63.83L575.55 104.69L558.16 104.69L558.16 144.62L519.19 144.62C519.19 91.72 519.19 62.32 519.19 56.45C518.93 47.69 520.67 38.98 524.28 30.99C528.63 21.99 535.43 14.39 543.91 9.08C552.02 3.63 561.56 0.68 571.34 0.59C571.62 0.59 573.01 0.59 575.52 0.59L575.52 41.54C574.33 41.54 573.67 41.54 573.54 41.54C569.22 41.32 565.03 43.13 562.23 46.44C559.32 50.48 557.91 55.41 558.24 60.38C558.24 60.61 558.24 61.79 558.24 63.91L575.55 63.83Z" id="a1dQEVrJmR">

    </path>
    <path d="M176.27 73.1C176.25 113.49 208.98 146.25 249.37 146.26C289.76 146.28 322.52 113.55 322.53 73.16C322.53 73.14 322.53 73.12 322.53 73.1C322.53 73.1 322.53 73.1 322.53 73.1C322.53 32.73 289.8 0 249.43 0C209.04 -0.02 176.28 32.71 176.27 73.1ZM185.35 73.1C185.35 37.71 214.04 9.02 249.43 9.02C284.8 9.02 313.48 37.68 313.51 73.05C313.51 73.05 313.51 73.05 313.51 73.05C313.53 108.42 284.86 137.11 249.48 137.13C249.47 137.13 249.45 137.13 249.43 137.13C214.04 137.19 185.35 108.49 185.35 73.1Z" id="b1K9jNkeQ">

    </path>
    <path d="M256.33 55.85C251.31 52.69 246.32 49.51 241.34 46.32C240.71 45.95 240.36 45.74 240.29 45.7C238 44.57 236.59 45.39 236.59 47.93C236.59 53.59 236.59 59.25 236.59 64.9C236.59 67.67 236.59 89.79 236.59 92.56C236.52 93.24 236.52 93.92 236.59 94.6C237.01 96.83 238.29 97.42 240.21 96.21C243.77 93.97 272.23 76.02 275.78 73.78C276.3 73.46 276.79 73.1 277.23 72.68C278.21 71.91 278.38 70.5 277.62 69.51C277.41 69.22 277.13 68.99 276.8 68.83C266.59 62.27 258.38 57.15 256.33 55.85Z" id="c8cYUJCwP">

    </path>
  </defs>
  <g>
    <g>
      <g>
        <use xlink:href="#b1JTnGBqtg" opacity="1" fill="#ffffff" fill-opacity="1">

        </use>
        <g>
          <use xlink:href="#b1JTnGBqtg" opacity="1" fill-opacity="0" stroke="#000000" stroke-width="1" stroke-opacity="0">

          </use>
        </g>
      </g>
      <g>
        <use xlink:href="#bhcqbsz" opacity="1" fill="#ffffff" fill-opacity="1">

        </use>
        <g>
          <use xlink:href="#bhcqbsz" opacity="1" fill-opacity="0" stroke="#000000" stroke-width="1" stroke-opacity="0">

          </use>
        </g>
      </g>
      <g>
        <use xlink:href="#ec6DJfz4K" opacity="1" fill="#ffffff" fill-opacity="1">

        </use><g><use xlink:href="#ec6DJfz4K" opacity="1" fill-opacity="0" stroke="#000000" stroke-width="1" stroke-opacity="0">

      </use>
      </g>
      </g>
      <g>
        <use xlink:href="#a1dQEVrJmR" opacity="1" fill="#ffffff" fill-opacity="1">

        </use>
        <g>
          <use xlink:href="#a1dQEVrJmR" opacity="1" fill-opacity="0" stroke="#000000" stroke-width="1" stroke-opacity="0">

          </use>
        </g>
      </g>
      <g>
        <use xlink:href="#b1K9jNkeQ" opacity="1" fill="#ffffff" fill-opacity="1">

        </use>
        <g>
          <use xlink:href="#b1K9jNkeQ" opacity="1" fill-opacity="0" stroke="#000000" stroke-width="1" stroke-opacity="0">

          </use>
        </g>
      </g>
      <g>
        <use xlink:href="#c8cYUJCwP" opacity="1" fill="#ffffff" fill-opacity="1">

        </use>
        <g>
          <use xlink:href="#c8cYUJCwP" opacity="1" fill-opacity="0" stroke="#000000" stroke-width="1" stroke-opacity="0">

          </use>
        </g>
      </g>
    </g>
  </g>
</svg>
