<?xml version="1.0" encoding="UTF-8" standalone="no"?>
<!DOCTYPE svg PUBLIC "-//W3C//DTD SVG 1.1//EN" "http://www.w3.org/Graphics/SVG/1.1/DTD/svg11.dtd">
<svg version="1.1" xmlns="http://www.w3.org/2000/svg" xmlns:xlink="http://www.w3.org/1999/xlink" preserveAspectRatio="xMidYMid meet" viewBox="0 0 639 200" width="639" height="200"><defs><path d="M125.22 144.28C120.11 146.27 114.68 147.32 109.19 147.39C97.06 147.56 85.47 142.39 77.49 133.25C68.79 123.77 64.14 111.27 64.51 98.41C64.25 84.33 69.92 70.78 80.14 61.08C90.35 51.04 104.18 45.56 118.49 45.9C126.48 45.87 134.38 47.53 141.68 50.76C148.47 53.57 154.45 58.04 159.05 63.77C166.08 72.82 169.59 85.92 169.59 103.08C169.59 123.44 169.59 134.75 169.59 137.02C169.59 164.59 155.49 177.36 153.93 181.84C143.52 193.31 128.59 199.61 113.12 199.06C106.51 198.77 99.99 197.46 93.78 195.19C93.78 191.67 93.78 163.58 93.78 160.06C98.46 162.69 103.74 164.07 109.1 164.08C115.25 164.42 121.21 161.88 125.22 157.21C128.99 152.63 130.88 146.03 130.88 137.41C130.88 114.27 130.88 101.41 130.88 98.84C130.88 82.58 119.07 84.23 117.76 82.61C114.04 82.61 110.49 84.17 107.97 86.9C105.29 89.49 103.78 93.05 103.79 96.77C103.69 100.46 105.13 104.02 107.77 106.59C110.39 109.19 113.95 110.62 117.64 110.52C120.28 110.52 122.88 109.89 125.22 108.68C125.22 115.8 125.22 140.72 125.22 144.28Z" id="b4te3cE81X"></path><path d="M371.94 2.52L371.94 42.28L389.44 42.28L389.44 83.4C378.94 83.4 373.1 83.4 371.94 83.4C371.37 89.33 372.74 95.28 375.84 100.36C379.7 103.96 384.94 105.68 390.18 105.06C390.18 107.8 390.18 121.47 390.18 146.09C387.5 146.09 386.01 146.09 385.71 146.09C377.01 146.14 368.44 144.04 360.77 139.96C353.19 136.08 346.72 130.35 341.96 123.3C335.56 112.58 332.48 100.2 333.11 87.72C333.11 82.04 333.11 53.64 333.11 2.52L371.94 2.52Z" id="a1AXBOYPot"></path><path d="M461.44 145.98C444.1 149.01 426.34 143.59 413.65 131.39C392.44 110.21 392.41 75.85 413.59 54.64C423.81 44.4 437.7 38.67 452.17 38.72C466.83 37.97 481.15 43.3 491.76 53.45C501.85 64.34 507.09 78.86 506.29 93.69C506.29 97.08 506.29 114.05 506.29 144.59L467.49 144.59C467.49 115.75 467.49 99.72 467.49 96.52C467.72 91.81 466.3 87.17 463.48 83.4C460.85 80.17 456.86 78.36 452.7 78.5C444.24 78.63 437.48 85.59 437.6 94.05C437.65 97.83 439.11 101.46 441.67 104.24C444.37 107.01 448.1 108.52 451.97 108.4C455.32 108.41 458.61 107.47 461.44 105.68C461.44 113.74 461.44 141.95 461.44 145.98Z" id="b675ola1gR"></path><path d="M575.55 63.83L575.55 104.69L558.16 104.69L558.16 144.62L519.19 144.62C519.19 91.72 519.19 62.32 519.19 56.45C518.93 47.69 520.67 38.98 524.28 30.99C528.63 21.99 535.43 14.39 543.91 9.08C552.02 3.63 561.56 0.68 571.34 0.59C571.62 0.59 573.01 0.59 575.52 0.59L575.52 41.54C574.33 41.54 573.67 41.54 573.54 41.54C569.22 41.32 565.03 43.13 562.23 46.44C559.32 50.48 557.91 55.41 558.24 60.38C558.24 60.61 558.24 61.79 558.24 63.91L575.55 63.83Z" id="b22EiyIrKp"></path><path d="M176.27 73.16C176.25 113.55 208.98 146.3 249.37 146.32C289.76 146.34 322.52 113.61 322.53 73.22C322.53 73.2 322.53 73.18 322.53 73.16C322.53 73.16 322.53 73.16 322.53 73.16C322.53 32.79 289.8 0.06 249.43 0.06C209.04 0.04 176.28 32.77 176.27 73.16ZM185.35 73.16C185.35 37.77 214.04 9.08 249.43 9.08C284.8 9.08 313.48 37.73 313.51 73.1C313.51 73.1 313.51 73.1 313.51 73.1C313.53 108.48 284.86 137.17 249.48 137.19C249.47 137.19 249.45 137.19 249.43 137.19C214.04 137.24 185.35 108.55 185.35 73.16Z" id="e5OUHjULu"></path><path d="M256.33 55.85C251.31 52.69 246.32 49.51 241.34 46.32C240.71 45.95 240.36 45.74 240.29 45.7C238 44.57 236.59 45.39 236.59 47.93C236.59 53.59 236.59 59.25 236.59 64.9C236.59 67.67 236.59 89.79 236.59 92.56C236.52 93.24 236.52 93.92 236.59 94.6C237.01 96.83 238.29 97.42 240.21 96.21C243.77 93.97 272.23 76.02 275.78 73.78C276.3 73.46 276.79 73.1 277.23 72.68C278.21 71.91 278.38 70.5 277.62 69.51C277.41 69.22 277.13 68.99 276.8 68.83C266.59 62.27 258.38 57.15 256.33 55.85Z" id="a1ZPjlNzla"></path></defs><g><g><g><use xlink:href="#b4te3cE81X" opacity="1" fill="#42475e" fill-opacity="1"></use><g><use xlink:href="#b4te3cE81X" opacity="1" fill-opacity="0" stroke="#000000" stroke-width="1" stroke-opacity="0"></use></g></g><g><use xlink:href="#a1AXBOYPot" opacity="1" fill="#42475e" fill-opacity="1"></use><g><use xlink:href="#a1AXBOYPot" opacity="1" fill-opacity="0" stroke="#000000" stroke-width="1" stroke-opacity="0"></use></g></g><g><use xlink:href="#b675ola1gR" opacity="1" fill="#42475e" fill-opacity="1"></use><g><use xlink:href="#b675ola1gR" opacity="1" fill-opacity="0" stroke="#000000" stroke-width="1" stroke-opacity="0"></use></g></g><g><use xlink:href="#b22EiyIrKp" opacity="1" fill="#42475e" fill-opacity="1"></use><g><use xlink:href="#b22EiyIrKp" opacity="1" fill-opacity="0" stroke="#000000" stroke-width="1" stroke-opacity="0"></use></g></g><g><use xlink:href="#e5OUHjULu" opacity="1" fill="#42475e" fill-opacity="1"></use><g><use xlink:href="#e5OUHjULu" opacity="1" fill-opacity="0" stroke="#000000" stroke-width="1" stroke-opacity="0"></use></g></g><g><use xlink:href="#a1ZPjlNzla" opacity="1" fill="#42475e" fill-opacity="1"></use><g><use xlink:href="#a1ZPjlNzla" opacity="1" fill-opacity="0" stroke="#000000" stroke-width="1" stroke-opacity="0"></use></g></g></g></g></svg>