<svg id="icon_nettoyage" xmlns="http://www.w3.org/2000/svg" width="38.885" height="39.924" viewBox="0 0 38.885 39.924">
  <g id="cleaning">
    <path id="Tracé_870" data-name="Tracé 870" d="M72.572,49.871l-3.5-3.5.115-.484,3.829-1.133a.685.685,0,0,0,0-1.313l-3.829-1.133-.834-3.5a.685.685,0,0,0-1.332,0l-.834,3.5-.909.269-5.469-5.468a5.352,5.352,0,0,0-7.57,0L39.475,49.871a5.359,5.359,0,0,0,0,7.571l.639.639-.752,2.668c-.395,2.077-2.808,5.649-2.832,5.684a.684.684,0,0,0,.082.869L44.2,74.893a.684.684,0,0,0,.856.091l4.079-2.64a31.322,31.322,0,0,0,3.011-2.226l.088.087a5.353,5.353,0,0,0,7.57,0L72.572,57.442A5.36,5.36,0,0,0,72.572,49.871Zm-5.618-6.363a.685.685,0,0,0,.472-.5l.259-1.091.26,1.091a.684.684,0,0,0,.472.5l1.989.588-1.989.588a.685.685,0,0,0-.472.5l-.26,1.091-.259-1.091a.684.684,0,0,0-.472-.5L64.965,44.1ZM48.4,71.194l-3.614,2.34-6.806-6.806a20.474,20.474,0,0,0,2.719-5.666L43.614,50.7a1.177,1.177,0,0,1,2.329.314l-1.361,5.9a.685.685,0,0,0,1.151.638l9.83-9.829a1.034,1.034,0,0,1,1.429,0,1.01,1.01,0,0,1,0,1.429h0l-7.232,7.232a.685.685,0,0,0,.968.968l9.23-9.23a1.011,1.011,0,0,1,1.43,1.429l-2.412,2.412h0l-6.817,6.817a.685.685,0,1,0,.968.968l6.818-6.817A1.033,1.033,0,0,1,61.4,54.395l-1.966,1.966-5.219,5.218a.685.685,0,0,0,.968.968l.367-.367h0l4.851-4.851a1.011,1.011,0,0,1,1.4,0,.987.987,0,0,1,0,1.4L53.3,67.23a30.028,30.028,0,0,1-4.9,3.964ZM71.6,56.474,58.84,69.236a3.984,3.984,0,0,1-5.634,0l-.017-.017c.366-.333.726-.671,1.075-1.02l8.505-8.505a2.355,2.355,0,0,0,0-3.333,2.241,2.241,0,0,0-.868-.529l.469-.469a2.406,2.406,0,0,0,0-3.4,2.378,2.378,0,0,0-.9-.558l.886-.886a2.38,2.38,0,1,0-3.366-3.366l-.48.48a2.351,2.351,0,0,0-.549-.88,2.435,2.435,0,0,0-3.365,0L46.453,54.9l.834-3.616A.78.78,0,0,0,47.3,51.2a2.545,2.545,0,0,0-5.019-.815L40.54,56.57l-.1-.1a3.989,3.989,0,0,1,0-5.635L53.207,38.076a3.983,3.983,0,0,1,5.634,0l4.942,4.942-1.426.422a.685.685,0,0,0,0,1.313l3.829,1.133.834,3.5a.685.685,0,0,0,1.332,0l.347-1.456L71.6,50.839a3.991,3.991,0,0,1,0,5.635Z" transform="translate(-36.412 -35.17)" fill="#03334f"/>
    <path id="Tracé_871" data-name="Tracé 871" d="M55.668,36.118a.684.684,0,0,0,.685-.685V34.064a.685.685,0,1,0-1.369,0v1.369A.684.684,0,0,0,55.668,36.118Z" transform="translate(-51.804 -33.379)" fill="#03334f"/>
    <path id="Tracé_872" data-name="Tracé 872" d="M55.668,57.379a.684.684,0,0,0-.685.685v1.369a.685.685,0,0,0,1.369,0V58.064A.684.684,0,0,0,55.668,57.379Z" transform="translate(-51.804 -53.271)" fill="#03334f"/>
    <path id="Tracé_873" data-name="Tracé 873" d="M39.668,50.748h1.369a.685.685,0,0,0,0-1.369H39.668a.685.685,0,1,0,0,1.369Z" transform="translate(-38.543 -46.64)" fill="#03334f"/>
    <path id="Tracé_874" data-name="Tracé 874" d="M63.668,50.748h1.369a.685.685,0,0,0,0-1.369H63.668a.685.685,0,0,0,0,1.369Z" transform="translate(-58.435 -46.64)" fill="#03334f"/>
    <path id="Tracé_875" data-name="Tracé 875" d="M217.379,229.379a2.4,2.4,0,1,0,2.4,2.4A2.4,2.4,0,0,0,217.379,229.379Zm0,3.423a1.027,1.027,0,1,1,1.027-1.027A1.028,1.028,0,0,1,217.379,232.8Z" transform="translate(-184.417 -195.83)" fill="#03334f"/>
    <path id="Tracé_876" data-name="Tracé 876" d="M255.767,203.494a.732.732,0,1,0,.732.732A.732.732,0,0,0,255.767,203.494Z" transform="translate(-217.613 -174.376)" fill="#03334f"/>
  </g>
</svg>
