<svg id="icon_localisation" xmlns="http://www.w3.org/2000/svg" width="15" height="21.333" viewBox="0 0 15 21.333">
  <g id="Groupe_446" data-name="Groupe 446">
    <g id="Groupe_445" data-name="Groupe 445">
      <path id="Tracé_861" data-name="Tracé 861" d="M83.5,0a7.5,7.5,0,0,0-6.38,11.444l5.954,9.594a.625.625,0,0,0,.531.3h0a.625.625,0,0,0,.531-.3l5.8-9.687A7.5,7.5,0,0,0,83.5,0Zm5.369,10.7-5.275,8.807-5.413-8.722A6.254,6.254,0,1,1,88.869,10.7Z" transform="translate(-76)" fill="#42475e"/>
    </g>
  </g>
  <g id="Groupe_448" data-name="Groupe 448" transform="translate(4.503 4.159)">
    <g id="Groupe_447" data-name="Groupe 447" transform="translate(0)">
      <path id="Tracé_862" data-name="Tracé 862" d="M169,90a3,3,0,1,0,3,3A3,3,0,0,0,169,90Zm0,5a2,2,0,1,1,2-2A2.006,2.006,0,0,1,169,95Z" transform="translate(-166 -90)" fill="#42475e"/>
    </g>
  </g>
</svg>
