<svg id="icon_trier" xmlns="http://www.w3.org/2000/svg" width="11.042" height="11.042" viewBox="0 0 11.042 11.042">
  <path id="Tracé_1004" data-name="Tracé 1004" d="M200.591,22.743h6.241a.24.24,0,1,0,0-.48h-6.241a.24.24,0,0,0,0,.48Z" transform="translate(-196.03 -21.783)" fill="#03334f"/>
  <path id="Tracé_1005" data-name="Tracé 1005" d="M206.832,200.349h-6.241a.24.24,0,0,0,0,.48h6.241a.24.24,0,1,0,0-.48Z" transform="translate(-196.03 -196.028)" fill="#03334f"/>
  <path id="Tracé_1006" data-name="Tracé 1006" d="M200.591,111.787h4.321a.24.24,0,1,0,0-.48h-4.321a.24.24,0,0,0,0,.48Z" transform="translate(-196.03 -108.907)" fill="#03334f"/>
  <path id="Tracé_1007" data-name="Tracé 1007" d="M204.912,467.48h-4.321a.24.24,0,0,0,0,.48h4.321a.24.24,0,1,0,0-.48Z" transform="translate(-196.03 -457.398)" fill="#03334f"/>
  <path id="Tracé_1008" data-name="Tracé 1008" d="M206.832,378.436h-6.241a.24.24,0,0,0,0,.48h6.241a.24.24,0,1,0,0-.48Z" transform="translate(-196.03 -370.275)" fill="#03334f"/>
  <path id="Tracé_1009" data-name="Tracé 1009" d="M200.591,289.874h4.321a.24.24,0,1,0,0-.48h-4.321a.24.24,0,1,0,0,.48Z" transform="translate(-196.03 -283.153)" fill="#03334f"/>
  <path id="Tracé_1010" data-name="Tracé 1010" d="M2.951,1.852a.24.24,0,1,0,.339-.339L1.85.072A.24.24,0,0,0,1.7,0h0a.235.235,0,0,0-.045,0h0a.239.239,0,0,0-.128.057L1.509.073.07,1.512a.24.24,0,0,0,.339.339L1.44.821v9.4L.41,9.194a.24.24,0,0,0-.339.339L1.51,10.972l.013.012a.239.239,0,0,0,.127.057h0l.03,0H1.7a.239.239,0,0,0,.154-.07l1.44-1.44a.24.24,0,0,0-.339-.339L1.92,10.224V.821Z" transform="translate(0 -0.002)" fill="#03334f"/>
</svg>
