<svg id="icon_recherche" xmlns="http://www.w3.org/2000/svg" width="52" height="52" viewBox="0 0 52 52">
  <g id="Groupe_9869" data-name="Groupe 9869">
    <circle id="Ellipse_17573" data-name="Ellipse 17573" cx="26" cy="26" r="26" fill="#f1ce49"/>
  </g>
  <path id="Search_18" data-name="Search 18" d="M14.067,13.122a7.824,7.824,0,0,0-.43-10.736A7.927,7.927,0,0,0,7.946,0,7.838,7.838,0,0,0,2.361,2.277a7.975,7.975,0,0,0,0,11.279,8.275,8.275,0,0,0,5.692,2.277,7.856,7.856,0,0,0,4.94-1.735l5.262,5.314,1.181-1.084Zm-1.181-1.084-.43.542-.537.434a6.258,6.258,0,0,1-3.974,1.3,6.3,6.3,0,0,1-4.511-1.844A6.359,6.359,0,0,1,1.609,8.025,6.173,6.173,0,0,1,3.435,3.579,6.3,6.3,0,0,1,7.946,1.735a6.3,6.3,0,0,1,4.511,1.844,5.687,5.687,0,0,1,1.826,4.229A6.1,6.1,0,0,1,12.886,12.038Z" transform="translate(15.975 16)" fill="#fff"/>
</svg>
