<svg id="icon_youtube" xmlns="http://www.w3.org/2000/svg" width="34.95" height="34.95" viewBox="0 0 34.95 34.95">
  <path id="Tracé_1111" data-name="Tracé 1111" d="M354.809,597.542h0a17.475,17.475,0,0,1-17.475-17.475h0a17.475,17.475,0,0,1,17.475-17.475h0a17.475,17.475,0,0,1,17.475,17.475h0A17.475,17.475,0,0,1,354.809,597.542Z" transform="translate(-337.334 -562.592)" fill="#c3271a"/>
  <g id="Groupe_10018" data-name="Groupe 10018" transform="translate(3.489 7.621)">
    <path id="Tracé_1112" data-name="Tracé 1112" d="M371.882,581.31a3.514,3.514,0,0,0-2.473-2.489c-2.182-.588-10.929-.588-10.929-.588s-8.747,0-10.929.588a3.515,3.515,0,0,0-2.473,2.489,39.593,39.593,0,0,0,0,13.553,3.515,3.515,0,0,0,2.473,2.489c2.182.588,10.929.588,10.929.588s8.747,0,10.929-.588a3.515,3.515,0,0,0,2.473-2.489,39.561,39.561,0,0,0,0-13.553Z" transform="translate(-344.495 -578.233)" fill="#fff"/>
    <path id="Tracé_1113" data-name="Tracé 1113" d="M367.326,598.238V589.92l7.311,4.159Z" transform="translate(-356.201 -584.225)" fill="#c3271a"/>
  </g>
</svg>
