<svg id="icon_linkedin" xmlns="http://www.w3.org/2000/svg" width="34.951" height="34.95" viewBox="0 0 34.951 34.95">
  <path id="Tracé_1116" data-name="Tracé 1116" d="M160.841,597.542h0a17.475,17.475,0,0,1-17.476-17.475h0a17.475,17.475,0,0,1,17.476-17.475h0a17.475,17.475,0,0,1,17.475,17.475h0A17.475,17.475,0,0,1,160.841,597.542Z" transform="translate(-143.365 -562.592)" fill="#117bb8"/>
  <g id="Groupe_10022" data-name="Groupe 10022" transform="translate(9.204 7.737)">
    <g id="Groupe_10021" data-name="Groupe 10021">
      <rect id="Rectangle_3575" data-name="Rectangle 3575" width="3.617" height="11.684" transform="translate(0.348 5.842)" fill="#fff"/>
      <path id="Tracé_1117" data-name="Tracé 1117" d="M164.392,582.783a2.156,2.156,0,1,0-2.139-2.157A2.148,2.148,0,0,0,164.392,582.783Z" transform="translate(-162.253 -578.471)" fill="#fff"/>
    </g>
    <path id="Tracé_1118" data-name="Tracé 1118" d="M178.6,595.636c0-1.643.756-2.621,2.2-2.621,1.33,0,1.969.939,1.969,2.621v6.133h3.6v-7.4c0-3.13-1.774-4.643-4.251-4.643a4.074,4.074,0,0,0-3.521,1.93v-1.573h-3.469V601.77H178.6Z" transform="translate(-168.857 -584.243)" fill="#fff"/>
  </g>
</svg>
