<svg id="icon_métier" xmlns="http://www.w3.org/2000/svg" width="20" height="17.646" viewBox="0 0 20 17.646">
  <path id="Tracé_1083" data-name="Tracé 1083" d="M19.414,33.655h-5.3V32.491a2.369,2.369,0,0,0-2.366-2.366H8.25a2.369,2.369,0,0,0-2.366,2.366v1.164H.586A.586.586,0,0,0,0,34.241V44.886a2.889,2.889,0,0,0,2.886,2.886H17.114A2.889,2.889,0,0,0,20,44.886V34.241A.586.586,0,0,0,19.414,33.655ZM11.329,41.3a1.329,1.329,0,0,1-2.659,0V39.972h2.659Zm.586-2.5H8.085a.586.586,0,0,0-.586.586v1.064c-3.407-.74-5.962-2.95-6.29-5.623H18.792c-.329,2.674-2.883,4.884-6.29,5.624V39.386a.586.586,0,0,0-.586-.586Zm-4.86-6.309A1.2,1.2,0,0,1,8.25,31.3h3.5a1.2,1.2,0,0,1,1.194,1.194v1.164H7.056V32.491ZM18.828,44.886A1.716,1.716,0,0,1,17.114,46.6H2.886a1.716,1.716,0,0,1-1.714-1.714V37.849A8.225,8.225,0,0,0,2.992,39.7a11.039,11.039,0,0,0,4.532,1.95,2.5,2.5,0,0,0,4.952,0,11.039,11.039,0,0,0,4.532-1.95,8.226,8.226,0,0,0,1.82-1.854Z" transform="translate(0 -30.125)" fill="#42475e"/>
</svg>
