<svg id="icon_insta" xmlns="http://www.w3.org/2000/svg" xmlns:xlink="http://www.w3.org/1999/xlink" width="34.951" height="34.95" viewBox="0 0 34.951 34.95">
  <defs>
    <radialGradient id="radial-gradient" cx="-0.025" cy="1.003" r="1.849" gradientTransform="translate(0)" gradientUnits="objectBoundingBox">
      <stop offset="0" stop-color="#f5ec53"/>
      <stop offset="0.241" stop-color="#e48244"/>
      <stop offset="0.397" stop-color="#d05667"/>
      <stop offset="0.489" stop-color="#c84278"/>
      <stop offset="1" stop-color="#192cfa"/>
    </radialGradient>
  </defs>
  <path id="Tracé_1123" data-name="Tracé 1123" d="M63.856,597.542h0a17.475,17.475,0,0,1-17.475-17.475h0a17.475,17.475,0,0,1,17.475-17.475h0a17.475,17.475,0,0,1,17.476,17.475h0A17.475,17.475,0,0,1,63.856,597.542Z" transform="translate(-46.381 -562.592)" fill="url(#radial-gradient)"/>
  <g id="Groupe_10026" data-name="Groupe 10026" transform="translate(7.894 7.893)">
    <path id="Tracé_1124" data-name="Tracé 1124" d="M72.162,580.517c2.559,0,2.862.01,3.872.056a5.3,5.3,0,0,1,1.78.33,3.171,3.171,0,0,1,1.818,1.818,5.3,5.3,0,0,1,.33,1.779c.046,1.011.056,1.314.056,3.872s-.01,2.862-.056,3.872a5.3,5.3,0,0,1-.33,1.779,3.171,3.171,0,0,1-1.818,1.819,5.3,5.3,0,0,1-1.78.33c-1.01.046-1.313.056-3.872.056s-2.861-.01-3.872-.056a5.3,5.3,0,0,1-1.779-.33,3.173,3.173,0,0,1-1.819-1.819,5.312,5.312,0,0,1-.33-1.779c-.046-1.01-.056-1.313-.056-3.872s.01-2.861.056-3.872a5.312,5.312,0,0,1,.33-1.779,3.174,3.174,0,0,1,1.819-1.818,5.3,5.3,0,0,1,1.779-.33c1.011-.046,1.314-.056,3.872-.056m0-1.726c-2.6,0-2.929.011-3.95.057a7.054,7.054,0,0,0-2.326.445,4.9,4.9,0,0,0-2.8,2.8,7.024,7.024,0,0,0-.445,2.326c-.047,1.022-.058,1.348-.058,3.95s.011,2.929.058,3.951a7.027,7.027,0,0,0,.445,2.326,4.9,4.9,0,0,0,2.8,2.8,7.038,7.038,0,0,0,2.326.445c1.022.046,1.348.058,3.95.058s2.929-.011,3.951-.058a7.038,7.038,0,0,0,2.326-.445,4.9,4.9,0,0,0,2.8-2.8,7.039,7.039,0,0,0,.445-2.326c.047-1.022.058-1.348.058-3.951s-.011-2.928-.058-3.95a7.037,7.037,0,0,0-.445-2.326,4.9,4.9,0,0,0-2.8-2.8,7.054,7.054,0,0,0-2.326-.445c-1.022-.046-1.348-.057-3.951-.057" transform="translate(-62.581 -578.791)" fill="#fff"/>
    <path id="Tracé_1125" data-name="Tracé 1125" d="M77.067,588.358a4.92,4.92,0,1,0,4.921,4.92,4.92,4.92,0,0,0-4.921-4.92m0,8.114a3.194,3.194,0,1,1,3.194-3.194,3.194,3.194,0,0,1-3.194,3.194" transform="translate(-67.486 -583.696)" fill="#fff"/>
    <path id="Tracé_1126" data-name="Tracé 1126" d="M92.681,586.749a1.15,1.15,0,1,1-1.15-1.15,1.15,1.15,0,0,1,1.15,1.15" transform="translate(-76.835 -582.282)" fill="#fff"/>
  </g>
</svg>
