<svg id="icon_micro" xmlns="http://www.w3.org/2000/svg" width="12" height="23" viewBox="0 0 12 23">
  <path id="Union_610" data-name="Union 610" d="M9.173,23H2.8a.774.774,0,0,1,0-1.533h.024v-.009H5.342V19.127C2.294,18.719,0,15.748,0,12.22c0-.034,0-.065.005-.1V10.367a.834.834,0,0,1-.005-.1.722.722,0,0,1,.667-.767.722.722,0,0,1,.667.767c0,.026,0,.051,0,.075v2.111h0v.006c0,.028,0,.055,0,.083v.288h.013a5.044,5.044,0,0,0,4.516,4.947h.269a5.043,5.043,0,0,0,4.518-4.947h.016V10.281h.005v-.009a.673.673,0,1,1,1.333,0c0,.022,0,.044,0,.065V12.22h-.008c0,3.522-2.287,6.49-5.328,6.907v2.331H9.173v.009H9.2A.774.774,0,0,1,9.2,23Zm-5.32-7.3a4.048,4.048,0,0,1-1.267-2.122,6.466,6.466,0,0,1-.165-1.236c-.024-.463-.022-.951-.022-1.414V7.052c0-.46,0-2.494,0-2.838a4.993,4.993,0,0,1,.187-1.236A3.656,3.656,0,0,1,6,0,3.656,3.656,0,0,1,9.408,2.978,6.661,6.661,0,0,1,9.6,4.214c.024.464,0,2.377,0,2.838v3.876h0c0,.464,0,.951-.022,1.414a6.592,6.592,0,0,1-.165,1.236A4.081,4.081,0,0,1,8.141,15.7a3.113,3.113,0,0,1-4.288,0Z" fill="#d6dae6"/>
</svg>
