<svg id="icon_whatsapp" xmlns="http://www.w3.org/2000/svg" width="34.951" height="34.95" viewBox="0 0 34.951 34.95">
  <path id="Tracé_1108" data-name="Tracé 1108" d="M-130.112,597.542h0a17.475,17.475,0,0,1-17.476-17.475h0a17.475,17.475,0,0,1,17.476-17.475h0a17.475,17.475,0,0,1,17.475,17.475h0A17.475,17.475,0,0,1-130.112,597.542Z" transform="translate(147.588 -562.592)" fill="#57f676"/>
  <g id="Groupe_10016" data-name="Groupe 10016" transform="translate(7.891 7.887)">
    <path id="Tracé_1109" data-name="Tracé 1109" d="M-112.229,587.882a9.376,9.376,0,0,0-9.407-9.1,9.383,9.383,0,0,0-9.4,8.931c0,.136-.009.273-.009.409a9.272,9.272,0,0,0,1.348,4.825l-1.7,5.01,5.212-1.657a9.428,9.428,0,0,0,4.547,1.164,9.375,9.375,0,0,0,9.411-9.341C-112.225,588.04-112.225,587.961-112.229,587.882Zm-9.407,8.089a7.879,7.879,0,0,1-4.353-1.3l-3.04.969.987-2.917a7.772,7.772,0,0,1-1.507-4.6,7.337,7.337,0,0,1,.04-.762,7.9,7.9,0,0,1,7.873-7.089,7.9,7.9,0,0,1,7.887,7.239c.018.2.026.405.026.613A7.891,7.891,0,0,1-121.636,595.971Z" transform="translate(131.395 -578.779)" fill="#fff" fill-rule="evenodd"/>
    <path id="Tracé_1110" data-name="Tracé 1110" d="M-111.885,595.346c-.233-.114-1.366-.67-1.577-.745s-.366-.115-.52.115-.6.745-.731.894-.268.172-.5.057a6.244,6.244,0,0,1-1.855-1.137,6.854,6.854,0,0,1-1.283-1.582c-.132-.23-.013-.353.1-.467s.229-.268.348-.4c.031-.04.057-.075.084-.111a2.539,2.539,0,0,0,.146-.273.413.413,0,0,0-.018-.4c-.058-.115-.52-1.243-.714-1.7s-.383-.379-.52-.379-.287-.022-.441-.022a.853.853,0,0,0-.617.286,2.565,2.565,0,0,0-.806,1.913,2.92,2.92,0,0,0,.119.78,5.209,5.209,0,0,0,.824,1.586,9.476,9.476,0,0,0,3.939,3.459c2.348.912,2.348.608,2.771.568a2.3,2.3,0,0,0,1.555-1.089,1.891,1.891,0,0,0,.136-1.088C-111.5,595.518-111.656,595.461-111.885,595.346Z" transform="translate(125.957 -584.12)" fill="#fff" fill-rule="evenodd"/>
  </g>
</svg>
