<svg id="icon_facebook" xmlns="http://www.w3.org/2000/svg" width="34.95" height="34.95" viewBox="0 0 34.95 34.95">
  <path id="Tracé_1121" data-name="Tracé 1121" d="M-33.128,597.542h0A17.475,17.475,0,0,1-50.6,580.067h0a17.475,17.475,0,0,1,17.475-17.475h0a17.475,17.475,0,0,1,17.475,17.475h0A17.475,17.475,0,0,1-33.128,597.542Z" transform="translate(50.603 -562.592)" fill="#3e5c9a"/>
  <path id="Tracé_1122" data-name="Tracé 1122" d="M-22.533,597.9h4.254V587.25h2.968l.317-3.567h-3.285v-2.031c0-.841.169-1.173.982-1.173h2.3v-3.7H-17.94c-3.166,0-4.593,1.395-4.593,4.063v2.844h-2.213v3.611h2.213Z" transform="translate(37.345 -569.865)" fill="#fff"/>
</svg>
