<svg id="icon_voir_carte" xmlns="http://www.w3.org/2000/svg" width="32.185" height="32.183" viewBox="0 0 32.185 32.183">
  <path id="Tracé_1002" data-name="Tracé 1002" d="M193.874,85.966a4.213,4.213,0,0,0,2.979,7.191h0a4.213,4.213,0,1,0-2.98-7.191Zm2.979-.021v.283a2.717,2.717,0,1,1-2.717,2.716,2.72,2.72,0,0,1,2.717-2.716v-.283Z" transform="translate(-180.759 -80.029)" fill="#42475e"/>
  <path id="Tracé_1003" data-name="Tracé 1003" d="M46.108,45.163l-3.794-9.947a.753.753,0,0,0-.7-.481H34.937c2.7-4.53,4.065-8.507,4.045-11.822a8.917,8.917,0,0,0-17.834,0c-.02,3.32,1.341,7.3,4.045,11.827H18.514a.753.753,0,0,0-.7.481l-3.794,9.947a.747.747,0,0,0,.7,1.015v0H45.41a.748.748,0,0,0,.7-1.015Zm-18.732-1.2h0l8.53-3.033,2.89,3.755H25.346Zm.066-1.611L22.734,36.23h3.391A49.893,49.893,0,0,0,29.5,40.854a.748.748,0,0,0,1.143,0A49.872,49.872,0,0,0,34,36.231H41.1l.423,1.11Zm-6.6-6.119,5.115,6.646-5.078,1.806H15.807L19.03,36.23Zm19.843,8.452-3.3-4.284,4.666-1.659,2.267,5.943ZM30.066,15.491a7.421,7.421,0,0,1,7.419,7.424c.038,6.273-5.754,14.133-7.421,16.263-1.666-2.129-7.459-9.987-7.421-16.267a7.429,7.429,0,0,1,7.421-7.419v-.283h0Z" transform="translate(-13.972 -13.995)" fill="#03334f"/>
</svg>
