<svg id="icon_restauration" xmlns="http://www.w3.org/2000/svg" width="36.338" height="36.382" viewBox="0 0 36.338 36.382">
  <g id="_023---Cuisine" data-name="023---Cuisine">
    <path id="Shape" d="M17.345,37.354a.909.909,0,1,0-1.013-1.509,21.182,21.182,0,0,0-3.171,2.613A20.718,20.718,0,0,0,7.374,49.435a.909.909,0,0,0,1.788.327,18.9,18.9,0,0,1,5.283-10.019,19.228,19.228,0,0,1,2.9-2.388Z" transform="translate(-0.674 -22.3)" fill="#03334f"/>
    <path id="Shape-2" data-name="Shape" d="M34.508,33.1A16.359,16.359,0,0,0,20.834,17.543a3.017,3.017,0,0,0,.182-.455,1.821,1.821,0,0,0,1.865-1.1,9.529,9.529,0,0,0,.739-3.6,5.918,5.918,0,0,0-.615-2.053l6.144,2.907a2,2,0,0,0,.881.2A2.047,2.047,0,0,0,31,9.589l-.033-.017a2.042,2.042,0,0,0-.835-3.552c-3.9-.944-7.9-1.748-11.267-2.263C14.305,1.887,10.8.929,8.479.929A19.078,19.078,0,0,0,.71,2.489,1.208,1.208,0,0,0,0,3.594v7.819a1.211,1.211,0,0,0,1.792,1.066l4.372-2.386a2.968,2.968,0,0,1,3.223.2,6.6,6.6,0,0,1,1.6,1.851c.639,1.06,1.342,2.156,2.082,3.26.148.219.293.424.424.619l.214.308a1.938,1.938,0,0,0,1.593.829h.029a3,3,0,0,0,.174.383A16.359,16.359,0,0,0,1.831,33.1,2.1,2.1,0,0,0,0,35.191a2.12,2.12,0,0,0,2.12,2.12h32.1a2.115,2.115,0,0,0,.289-4.21ZM16.673,13.5a3.968,3.968,0,0,1-.351-2.685.371.371,0,0,1,.218-.258,2.816,2.816,0,0,1,1.858.376A2.475,2.475,0,0,1,19.89,12.89a3.467,3.467,0,0,1-.1.666,2.968,2.968,0,0,0-3.115-.061Zm13.8-5.335a.83.83,0,0,1-.881.677c-2.042-1.079-4.1-2.1-6.066-3.028,2.059.406,4.2.875,6.32,1.389A.838.838,0,0,1,30.475,8.161ZM14.708,15.642l-.215-.31c-.131-.189-.273-.392-.417-.606-.727-1.085-1.418-2.165-2.05-3.21a7.79,7.79,0,0,0-1.9-2.185,4.179,4.179,0,0,0-4.542-.306L1.211,11.413,1.2,3.6A17.867,17.867,0,0,1,8.479,2.141c2.372,0,6.129,1.09,11.166,3.246,3.276,1.406,7.1,3.278,10.776,5.269a.839.839,0,0,1,.356,1.1.848.848,0,0,1-1.107.389L21.457,8.257a.6.6,0,0,0-.741.2.62.62,0,0,0,.061.782,5.853,5.853,0,0,1,1.633,3.254,8.593,8.593,0,0,1-.647,3.028.606.606,0,0,1-.746.338.862.862,0,0,1-.084-.035.633.633,0,0,0-.054-.035.58.58,0,0,1-.287-.5.694.694,0,0,1,.041-.212l.067-.217a8.7,8.7,0,0,0,.4-2.023,3.65,3.65,0,0,0-2.177-3,3.849,3.849,0,0,0-2.856-.4,1.578,1.578,0,0,0-.895.99,5.446,5.446,0,0,0,.549,3.919,3.005,3.005,0,0,0-.563,1.581A.715.715,0,0,1,14.708,15.642Zm1.668.734a1.711,1.711,0,0,1-.023-.263A1.813,1.813,0,0,1,18.17,14.3a1.772,1.772,0,0,1,1.277.545,1.721,1.721,0,0,0,.477,1.724,1.781,1.781,0,0,1-.463.816c-.427-.035-.857-.057-1.29-.057s-.865.022-1.292.055a1.79,1.79,0,0,1-.5-1ZM34.863,35.834a.9.9,0,0,1-.644.265H2.12a.908.908,0,1,1,0-1.817H6.057a.606.606,0,1,0,0-1.211H3.043a15.139,15.139,0,0,1,30.254,0H9.085a.606.606,0,1,0,0,1.211H34.219a.908.908,0,0,1,.644,1.552Z" transform="translate(0 -0.928)" fill="#03334f"/>
    <path id="Shape-3" data-name="Shape" d="M8.441,5.347a23.883,23.883,0,0,0-3.832.977A.908.908,0,0,0,4,7.183V11.39a.908.908,0,0,0,1.817,0V7.839a22.318,22.318,0,0,1,2.929-.7.909.909,0,1,0-.3-1.791Z" transform="translate(-0.366 -1.332)" fill="#03334f"/>
    <ellipse id="Oval" cx="0.908" cy="0.908" rx="0.908" ry="0.908" transform="translate(11.904 19.685)" fill="#03334f"/>
  </g>
</svg>
