<svg xmlns="http://www.w3.org/2000/svg" width="18.76" height="18.76" viewBox="0 0 18.76 18.76">
  <g id="icon_annonces_urgentes_1" transform="translate(0)">
    <path id="Tracé_892" data-name="Tracé 892" d="M104.438,158.922l-.919-2.711a.366.366,0,0,0-.347-.249h-.053v-5.313a4.653,4.653,0,1,0-9.307,0v5.313h-.053a.366.366,0,0,0-.347.249l-.919,2.711a.366.366,0,0,0,.347.484h11.251a.366.366,0,0,0,.347-.484Zm-9.893-8.274a3.921,3.921,0,0,1,7.841,0v5.313H94.545Zm-1.194,8.025.67-1.979h8.888l.67,1.979Z" transform="translate(-89.086 -140.646)" fill="#03334f"/>
    <path id="Tracé_893" data-name="Tracé 893" d="M246.366,0A.367.367,0,0,0,246,.366v2.2a.366.366,0,0,0,.733,0V.366A.366.366,0,0,0,246.366,0Z" transform="translate(-236.986)" fill="#03334f"/>
    <path id="Tracé_894" data-name="Tracé 894" d="M246.625,99.071a.367.367,0,1,0,.107.259A.369.369,0,0,0,246.625,99.071Z" transform="translate(-236.986 -95.338)" fill="#03334f"/>
    <path id="Tracé_895" data-name="Tracé 895" d="M41.636,267.66H39.953a.366.366,0,0,0,0,.733h1.683a.366.366,0,1,0,0-.733Z" transform="translate(-38.137 -257.853)" fill="#03334f"/>
    <path id="Tracé_896" data-name="Tracé 896" d="M.632,267.767a.366.366,0,0,0-.518,0,.366.366,0,0,0,.259.625.366.366,0,0,0,.259-.625Z" transform="translate(-0.007 -257.853)" fill="#03334f"/>
    <path id="Tracé_897" data-name="Tracé 897" d="M157.079,51.518l-.5-1.2a.366.366,0,1,0-.677.28l.5,1.2a.366.366,0,1,0,.677-.28Z" transform="translate(-150.166 -48.258)" fill="#03334f"/>
    <path id="Tracé_898" data-name="Tracé 898" d="M30.136,178.064l-1.2-.5a.366.366,0,0,0-.28.677l1.2.5a.366.366,0,0,0,.28-.677Z" transform="translate(-27.389 -171.034)" fill="#03334f"/>
    <path id="Tracé_899" data-name="Tracé 899" d="M412.711,267.66h-1.683a.366.366,0,0,0,0,.733h1.683a.366.366,0,0,0,0-.733Z" transform="translate(-395.615 -257.853)" fill="#03334f"/>
    <path id="Tracé_900" data-name="Tracé 900" d="M492.618,267.767a.366.366,0,1,0,.107.259A.369.369,0,0,0,492.618,267.767Z" transform="translate(-473.966 -257.853)" fill="#03334f"/>
    <path id="Tracé_901" data-name="Tracé 901" d="M389.9,77.088a.367.367,0,0,0-.518,0l-1.8,1.8a.366.366,0,0,0,.518.518l1.8-1.8A.367.367,0,0,0,389.9,77.088Z" transform="translate(-373.276 -74.16)" fill="#03334f"/>
    <path id="Tracé_902" data-name="Tracé 902" d="M57.75,78.893l-1.8-1.8a.366.366,0,0,0-.518.518l1.8,1.8a.366.366,0,0,0,.518-.518Z" transform="translate(-53.295 -74.162)" fill="#03334f"/>
    <path id="Tracé_903" data-name="Tracé 903" d="M323.565,50.122a.367.367,0,0,0-.479.2l-.5,1.2a.366.366,0,1,0,.677.28l.5-1.2A.366.366,0,0,0,323.565,50.122Z" transform="translate(-310.743 -48.258)" fill="#03334f"/>
    <path id="Tracé_904" data-name="Tracé 904" d="M432.746,177.765a.367.367,0,0,0-.479-.2l-1.2.5a.366.366,0,1,0,.28.677l1.2-.5A.367.367,0,0,0,432.746,177.765Z" transform="translate(-415.056 -171.033)" fill="#03334f"/>
    <path id="Tracé_905" data-name="Tracé 905" d="M227.1,209.008a1.1,1.1,0,0,0-1.1,1.1v1.759a1.1,1.1,0,1,0,2.2,0v-1.759A1.1,1.1,0,0,0,227.1,209.008Zm.366,2.858a.366.366,0,1,1-.733,0v-1.759a.366.366,0,1,1,.733,0Z" transform="translate(-217.72 -201.35)" fill="#03334f"/>
    <path id="Tracé_906" data-name="Tracé 906" d="M227.1,337.005a1.1,1.1,0,1,0,1.1,1.1A1.1,1.1,0,0,0,227.1,337.005Zm0,1.466a.366.366,0,1,1,.366-.366A.367.367,0,0,1,227.1,338.471Z" transform="translate(-217.72 -324.657)" fill="#03334f"/>
  </g>
</svg>
