<svg id="icon_BTP" xmlns="http://www.w3.org/2000/svg" width="37.2" height="39.23" viewBox="0 0 37.2 39.23">
  <g id="Groupe_9792" data-name="Groupe 9792">
    <path id="Tracé_877" data-name="Tracé 877" d="M32.493,16.773c.391.361.785.719,1.183,1.07a2.282,2.282,0,0,0,1.514.577,2.257,2.257,0,0,0,.884-.182l.85.85a2.106,2.106,0,0,0,.225,2.356,12.07,12.07,0,0,0,1.521,1.521,2.108,2.108,0,0,0,2.771-.07c1.537-1.413,3.033-2.91,4.447-4.447a2.108,2.108,0,0,0,.07-2.771,12.069,12.069,0,0,0-1.52-1.521,2.107,2.107,0,0,0-2.356-.225l-.851-.851a2.274,2.274,0,0,0-.394-2.4q-.527-.6-1.07-1.184l.014-.014a1.876,1.876,0,0,0,0-2.65L38.353,5.408a1.861,1.861,0,0,0-1.325-.549h0a1.862,1.862,0,0,0-1.325.549l-.017.017q-1.084-1-2.2-1.949l-.007-.006c-.451-.37-.878-.7-1.306-1a.575.575,0,1,0-.663.939c.4.285.808.594,1.237.945a70.119,70.119,0,0,1,7.232,7.087A1.127,1.127,0,0,1,40,12.91a29.658,29.658,0,0,1-4.1,4.1,1.124,1.124,0,0,1-1.464-.032,69.937,69.937,0,0,1-6.179-6.18,1.105,1.105,0,0,1-.031-1.437c.615-.75,1.272-1.475,1.951-2.156a.575.575,0,0,0-.02-.831,12.763,12.763,0,0,0-7.273-3.367.782.782,0,0,1-.67-.555.756.756,0,0,1,.068-.6.838.838,0,0,1,.52-.4,9.4,9.4,0,0,1,6.809.8.575.575,0,1,0,.516-1.027A10.5,10.5,0,0,0,22.516.347a1.993,1.993,0,0,0-1.237.95,1.9,1.9,0,0,0-.165,1.493,1.928,1.928,0,0,0,1.657,1.364,11.5,11.5,0,0,1,6.163,2.681c-.553.577-1.088,1.18-1.6,1.8a2.25,2.25,0,0,0,.058,2.927c.336.381.678.757,1.023,1.132L24.211,16.9a2.473,2.473,0,0,0-2.237.6c-2.781,2.563-5.491,5.272-8.054,8.054a2.474,2.474,0,0,0-.131,3.211A15.273,15.273,0,0,0,16.427,31.4a2.475,2.475,0,0,0,3.211-.131c2.781-2.563,5.491-5.273,8.054-8.054a2.474,2.474,0,0,0,.6-2.236ZM36.526,6.212a.72.72,0,0,1,.5-.2h0a.719.719,0,0,1,.512.212l1.427,1.427a.725.725,0,0,1,.011,1.012q-1.195-1.252-2.452-2.448Zm6.568,8.609a.943.943,0,0,1,.606.219,10.919,10.919,0,0,1,1.375,1.375.955.955,0,0,1-.034,1.255c-1.392,1.514-2.865,2.987-4.379,4.379a.956.956,0,0,1-1.256.034,10.914,10.914,0,0,1-1.375-1.375.956.956,0,0,1,.034-1.256c1.392-1.514,2.865-2.987,4.379-4.379A.958.958,0,0,1,43.093,14.821Zm-2.535-.784.632.632c-1.212,1.134-2.4,2.318-3.531,3.53l-.632-.632A30.81,30.81,0,0,0,40.559,14.037Zm-8.9,1.949L27.74,19.9a15.278,15.278,0,0,0-2.451-2.451L29.2,13.533Q30.4,14.789,31.654,15.986Zm-4.807,6.449c-2.542,2.758-5.229,5.446-7.988,7.988a1.329,1.329,0,0,1-1.724.07A14.122,14.122,0,0,1,14.7,28.053a1.329,1.329,0,0,1,.07-1.724c2.542-2.759,5.229-5.446,7.988-7.988a1.329,1.329,0,0,1,1.724-.07,14.125,14.125,0,0,1,2.439,2.439,1.329,1.329,0,0,1-.07,1.724Z" transform="translate(-13.261 0)" fill="#03334f"/>
    <path id="Tracé_878" data-name="Tracé 878" d="M349.5,315.1a1.986,1.986,0,0,0-1.123-1.04,16.539,16.539,0,0,0-9.745,0,2,2,0,1,0,1.375,3.755,8.851,8.851,0,0,1,1.294-.306v8a.575.575,0,0,0,.1.317l1.627,2.458a.575.575,0,0,0,.959,0l1.627-2.458a.575.575,0,0,0,.1-.317v-1.954a.575.575,0,1,0-1.15,0v1.781l-1.052,1.59-1.052-1.59v-7.969c.326-.026.678-.042,1.053-.042s.726.016,1.052.041v3.891a.575.575,0,1,0,1.15,0v-3.749a8.876,8.876,0,0,1,1.291.3,2,2,0,0,0,2.5-2.714Zm-1.02,1.13a.853.853,0,0,1-1.092.5,13.815,13.815,0,0,0-7.772,0,.85.85,0,0,1-.584-1.6,15.433,15.433,0,0,1,8.947,0,.85.85,0,0,1,.5,1.092Z" transform="translate(-312.485 -289.316)" fill="#03334f"/>
  </g>
  <path id="Tracé_879" data-name="Tracé 879" d="M229.261,285.95l1.716-.136a1.644,1.644,0,0,0,1.51-1.652l0-.159a1.644,1.644,0,0,0-1.544-1.619l-1.718-.1a1.639,1.639,0,0,0-1.734,1.654l0,.394a1.639,1.639,0,0,0,1.64,1.622Q229.2,285.955,229.261,285.95Zm-.46-1.273a.485.485,0,0,1-.159-.356l0-.394a.49.49,0,0,1,.489-.495h.029l1.718.1a.491.491,0,0,1,.461.483h0l0,.158a.491.491,0,0,1-.451.493l-1.716.136A.484.484,0,0,1,228.8,284.677Z" transform="translate(-211.069 -260.648)" fill="#03334f"/>
  <path id="Tracé_880" data-name="Tracé 880" d="M251.716,345.975l-.081-.137a1.644,1.644,0,0,0-2.147-.63l-1.538.773a1.639,1.639,0,0,0-.675,2.3l.2.339a1.64,1.64,0,0,0,2.34.516l1.418-.976A1.644,1.644,0,0,0,251.716,345.975Zm-1.133,1.238-1.418.976a.489.489,0,0,1-.7-.154l-.2-.339a.489.489,0,0,1,.2-.687l1.538-.773a.491.491,0,0,1,.641.188h0l.081.136A.491.491,0,0,1,250.582,347.213Z" transform="translate(-229.129 -318.591)" fill="#03334f"/>
  <path id="Tracé_881" data-name="Tracé 881" d="M302.911,390.992l-.138-.078a1.644,1.644,0,0,0-2.174.528l-.945,1.438a1.639,1.639,0,0,0,.565,2.328l.343.193a1.639,1.639,0,0,0,2.284-.723l.74-1.554A1.644,1.644,0,0,0,302.911,390.992Zm-.362,1.639-.74,1.554a.489.489,0,0,1-.682.216l-.343-.194a.49.49,0,0,1-.169-.7l.945-1.438a.491.491,0,0,1,.41-.22.485.485,0,0,1,.239.063l.138.078A.491.491,0,0,1,302.549,392.631Z" transform="translate(-277.454 -360.761)" fill="#03334f"/>
</svg>
