<svg xmlns="http://www.w3.org/2000/svg" width="35" height="38" viewBox="0 0 35 38">
  <g id="Icons" transform="translate(-16.998 -5)">
    <path id="Tracé_4098" data-name="Tracé 4098" d="M49.744,14.245a.528.528,0,0,0-.565-.408H44.663V10.7C44.658,7.554,41.4,5,37.38,5h-.113a8.742,8.742,0,0,0-4,.94,9.344,9.344,0,0,0-.971-.057h-.113c-4.02,0-7.278,2.554-7.283,5.7v2.253H19.822a.525.525,0,0,0-.565.414L17,42.531c-.019.244.217.453.528.468H44.663a.642.642,0,0,0,.4-.133h0l6.775-5.3A.393.393,0,0,0,52,37.219ZM37.267,5.884h.113c3.4,0,6.15,2.158,6.154,4.816v3.137H39.582V11.584c-.005-2.366-1.875-4.483-4.7-5.323A7.611,7.611,0,0,1,37.267,5.884Zm-3.714.985c2.852.468,4.9,2.435,4.9,4.715v2.253H31.113V10.7A4.552,4.552,0,0,1,33.553,6.869Zm-7.521,4.715c0-2.6,2.645-4.73,5.967-4.809A5.1,5.1,0,0,0,29.984,10.7v3.137H26.032ZM18.164,42.116l2.188-27.4H24.9v4.86a.582.582,0,0,0,1.129,0v-4.86h12.42v4.86a.582.582,0,0,0,1.129,0v-4.86H46.32l-2.188,27.4Zm27.155-.707,2.131-26.688h1.205l2.2,22.366L45.33,41.409c-.006.006-.01,0-.01,0Z" fill="#1f334f"/>
  </g>
</svg>
