<svg id="icon_spotify" xmlns="http://www.w3.org/2000/svg" width="34.951" height="34.95" viewBox="0 0 34.951 34.95">
  <path id="Tracé_1119" data-name="Tracé 1119" d="M451.793,597.542h0a17.475,17.475,0,0,1-17.475-17.475h0a17.475,17.475,0,0,1,17.475-17.475h0a17.475,17.475,0,0,1,17.476,17.475h0A17.475,17.475,0,0,1,451.793,597.542Z" transform="translate(-434.318 -562.592)" fill="#1ec85a"/>
  <path id="Tracé_1120" data-name="Tracé 1120" d="M459.431,577.487A10.217,10.217,0,1,0,469.648,587.7,10.217,10.217,0,0,0,459.431,577.487Zm4.7,14.764a.608.608,0,0,1-.869.2c-2.4-1.481-5.415-1.788-8.991-.971a.632.632,0,1,1-.307-1.226c3.882-.868,7.254-.511,9.91,1.124A.613.613,0,0,1,464.131,592.251Zm1.226-2.81a.77.77,0,0,1-1.073.256,13.244,13.244,0,0,0-10.166-1.175.775.775,0,1,1-.459-1.481,14.945,14.945,0,0,1,11.494,1.38A.721.721,0,0,1,465.357,589.441Zm.1-2.86c-3.269-1.941-8.735-2.146-11.852-1.175a.937.937,0,0,1-.562-1.788c3.627-1.073,9.6-.868,13.384,1.38a.987.987,0,0,1,.358,1.328A1.071,1.071,0,0,1,465.459,586.581Z" transform="translate(-441.955 -570.229)" fill="#fff"/>
</svg>
