<svg xmlns="http://www.w3.org/2000/svg" width="52" height="52" viewBox="0 0 52 52">
  <g id="Groupe_10488" data-name="Groupe 10488" transform="translate(-614 -1692)">
    <g id="Groupe_9882" data-name="Groupe 9882" transform="translate(614 1692)">
      <circle id="Ellipse_17573" data-name="Ellipse 17573" cx="26" cy="26" r="26" fill="#ffbd07"/>
    </g>
    <g id="save" transform="translate(630.002 1707.997)">
      <path id="Tracé_985" data-name="Tracé 985" d="M20.255,5.01a.6.6,0,0,0-.131-.318c-.03-.036.273.269-4.511-4.515A.6.6,0,0,0,15.193,0H1.78A1.783,1.783,0,0,0,0,1.784v16.7A1.783,1.783,0,0,0,1.78,20.262h16.7a1.783,1.783,0,0,0,1.781-1.781c0-14.41,0-13.426,0-13.472ZM13.65,1.19V5.068a.594.594,0,0,1-.594.594H12.3V1.19Zm-2.532,0V5.661h-5.5a.594.594,0,0,1-.594-.594V1.19ZM13.65,12.7H5.024v-.752a.594.594,0,0,1,.594-.594h7.439a.594.594,0,0,1,.594.594Zm-8.626,6.37V13.891H13.65v5.183Zm14.047-.594a.594.594,0,0,1-.594.594h-3.64V11.953a1.783,1.783,0,0,0-1.781-1.781H5.618a1.783,1.783,0,0,0-1.781,1.781v7.122H1.78a.594.594,0,0,1-.594-.594V1.784A.594.594,0,0,1,1.78,1.19H3.837V5.068A1.783,1.783,0,0,0,5.618,6.848h7.439a1.783,1.783,0,0,0,1.781-1.781V1.19h.11l4.124,4.124Z" transform="translate(0 0)" fill="#fff"/>
    </g>
  </g>
</svg>
