<svg id="icon_logistique" xmlns="http://www.w3.org/2000/svg" width="34.051" height="34.05" viewBox="0 0 34.051 34.05">
  <g id="Groupe_9796" data-name="Groupe 9796">
    <path id="Tracé_886" data-name="Tracé 886" d="M20.222,29.443a9.222,9.222,0,1,1,9.222-9.222A9.232,9.232,0,0,1,20.222,29.443Zm0-17.025a7.8,7.8,0,1,0,7.8,7.8A7.812,7.812,0,0,0,20.222,12.419Z" transform="translate(4.608 4.606)" fill="#03334f"/>
    <path id="Tracé_887" data-name="Tracé 887" d="M17.547,22.094a.717.717,0,0,1-.5-.207l-2.837-2.837a.709.709,0,0,1,1-1l2.3,2.3,4.466-5.1a.709.709,0,0,1,1.068.934L18.08,21.851a.715.715,0,0,1-.511.243Z" transform="translate(5.863 6.281)" fill="#03334f"/>
    <path id="Tracé_888" data-name="Tracé 888" d="M13.059,25.443H3.128A2.131,2.131,0,0,1,1,23.315V7.709A.71.71,0,0,1,1.709,7H25.828a.71.71,0,0,1,.709.709v2.923a.709.709,0,0,1-1.419,0V8.419H2.419v14.9a.711.711,0,0,0,.709.709h9.931a.709.709,0,1,1,0,1.419Z" transform="translate(0.42 2.931)" fill="#03334f"/>
    <path id="Tracé_889" data-name="Tracé 889" d="M14.8,11.419H7.709a.709.709,0,1,1,0-1.419H14.8a.709.709,0,1,1,0,1.419Z" transform="translate(2.932 4.188)" fill="#03334f"/>
    <path id="Tracé_890" data-name="Tracé 890" d="M27.665,10.094H.709A.71.71,0,0,1,0,9.384V3.709A.71.71,0,0,1,.709,3H27.665a.71.71,0,0,1,.709.709V9.384A.71.71,0,0,1,27.665,10.094ZM1.419,8.675H26.956V4.419H1.419Z" transform="translate(0 1.257)" fill="#03334f"/>
    <path id="Tracé_891" data-name="Tracé 891" d="M27.665,5.675a.713.713,0,0,1-.5-.207L23.115,1.419H5.259L1.211,5.468a.709.709,0,0,1-1-1L4.464.209A.7.7,0,0,1,4.965,0H23.409a.714.714,0,0,1,.5.207l4.256,4.256a.71.71,0,0,1-.5,1.212Z" transform="translate(0.002 0)" fill="#03334f"/>
  </g>
</svg>
