<svg id="icon_twitter" xmlns="http://www.w3.org/2000/svg" width="34.95" height="34.95" viewBox="0 0 34.95 34.95">
  <path id="Tracé_1114" data-name="Tracé 1114" d="M257.825,597.542h0a17.475,17.475,0,0,1-17.475-17.475h0a17.475,17.475,0,0,1,17.475-17.475h0A17.475,17.475,0,0,1,275.3,580.067h0A17.475,17.475,0,0,1,257.825,597.542Z" transform="translate(-240.35 -562.592)" fill="#29a9e1"/>
  <path id="Tracé_1115" data-name="Tracé 1115" d="M257.105,596.343a10.865,10.865,0,0,0,16.716-9.649,7.75,7.75,0,0,0,1.906-1.977,7.648,7.648,0,0,1-2.194.6,3.827,3.827,0,0,0,1.68-2.114,7.655,7.655,0,0,1-2.426.928,3.823,3.823,0,0,0-6.511,3.485,10.841,10.841,0,0,1-7.874-3.992,3.825,3.825,0,0,0,1.183,5.1,3.8,3.8,0,0,1-1.731-.478,3.825,3.825,0,0,0,3.064,3.795,3.828,3.828,0,0,1-1.725.065,3.823,3.823,0,0,0,3.568,2.653A7.677,7.677,0,0,1,257.105,596.343Z" transform="translate(-248.941 -573.018)" fill="#fff"/>
</svg>
