<?xml version="1.0" encoding="UTF-8" standalone="no"?>
<!DOCTYPE svg PUBLIC "-//W3C//DTD SVG 1.1//EN" "http://www.w3.org/Graphics/SVG/1.1/DTD/svg11.dtd">
<svg version="1.1" xmlns="http://www.w3.org/2000/svg" xmlns:xlink="http://www.w3.org/1999/xlink" preserveAspectRatio="xMidYMid meet" viewBox="0 0 640 640" width="640" height="640"><defs><path d="M319.35 0C142.98 0 0 142.98 0 319.35C0 495.72 142.98 638.69 319.35 638.69C495.72 638.69 638.69 495.72 638.69 319.35C638.69 142.98 495.72 0 319.35 0Z" id="a7a1f62fGm"></path><path d="M289.24 318.04C290.03 317.25 296.31 310.97 297.1 310.18C332.43 344.21 333.74 400.49 299.71 434.52C299.63 434.61 299.19 435.04 298.4 435.83L289.24 427.98C308.44 375.62 308.44 338.98 289.24 318.04ZM257.83 350.76C258.62 349.97 264.9 343.69 265.69 342.9C282.7 361.23 282.7 388.71 265.69 405.73C265.16 405.12 262.54 402.06 257.83 396.56C266.56 373.88 266.56 358.61 257.83 350.76Z" id="dZZSViTa9"></path><path d="M321.96 289.24C321.88 289.16 321.44 288.72 320.65 287.93C325.37 282.44 327.98 279.38 328.51 278.77C380.86 331.12 380.86 414.89 329.82 467.24C329.82 467.24 329.82 467.24 328.51 468.55C327.98 467.94 325.37 464.88 320.65 459.39C352.94 377.37 353.37 320.65 321.96 289.24Z" id="dGRcYTaTI"></path><path d="M175.38 302.33C175.38 223.8 238.2 159.67 316.73 159.67C395.26 159.67 459.39 223.8 459.39 302.33C459.39 303.64 459.39 306.26 459.39 307.57C476.4 315.42 488.18 332.43 488.18 350.76C488.18 355.08 488.18 389.63 488.18 393.95C488.18 420.12 467.24 442.37 439.75 442.37C439.75 443.42 439.75 451.8 439.75 452.84C439.75 455.46 437.14 458.08 434.52 458.08C434.52 458.08 434.52 458.08 434.52 458.08C421.96 458.08 414.97 458.08 413.58 458.08C410.96 458.08 408.34 455.46 408.34 452.84C408.34 452.84 408.34 452.84 408.34 452.84C408.34 357.04 408.34 303.81 408.34 293.17C408.34 290.55 410.96 287.93 413.58 287.93C413.58 287.93 413.58 287.93 413.58 287.93C422.22 287.93 427.02 287.93 427.98 287.93C417.51 226.42 359.92 185.85 298.4 195.01C251.29 202.86 214.64 239.51 206.79 287.93C208.23 287.93 219.75 287.93 221.19 287.93C223.8 287.93 226.42 290.55 226.42 293.17C226.42 293.17 226.42 293.17 226.42 293.17C226.42 388.97 226.42 442.2 226.42 452.84C226.42 455.46 223.8 458.08 221.19 458.08C219.09 458.08 202.34 458.08 200.25 458.08C197.63 458.08 195.01 455.46 195.01 452.84C195.01 452.84 195.01 452.84 195.01 452.84C195.01 446.56 195.01 443.07 195.01 442.37C168.83 442.37 146.58 421.43 146.58 393.95C146.58 389.63 146.58 355.08 146.58 350.76C146.58 332.43 157.06 315.42 175.38 307.57C175.38 306.26 175.38 303.64 175.38 302.33ZM477.71 395.26C477.71 390.94 477.71 356.38 477.71 352.07C477.71 331.12 460.7 315.42 439.75 315.42C439.75 323.18 439.75 362.01 439.75 431.9C464.19 420.56 476.84 408.34 477.71 395.26ZM418.81 447.61L429.28 447.61L429.28 298.4L418.81 298.4L418.81 447.61ZM215.95 447.61L215.95 298.4L205.48 298.4L205.48 447.61L215.95 447.61ZM332.43 184.54C388.71 191.08 431.9 235.58 439.75 291.86C439.75 293.17 439.75 293.17 439.75 294.48C439.75 294.74 439.75 296.83 439.75 297.1C439.75 299.71 439.75 302.33 439.75 304.95C442.37 304.95 444.99 304.95 448.92 306.26C448.92 304.95 448.92 304.95 448.92 303.64C447.61 230.35 388.71 172.76 315.42 172.76C243.44 172.76 185.85 230.35 185.85 302.33C185.85 303.64 185.85 303.64 185.85 304.95C188.47 303.64 191.08 303.64 193.7 303.64C193.7 301.02 193.7 298.4 193.7 295.79C193.7 295.53 193.7 293.43 193.7 293.17C195.01 291.86 195.01 291.86 195.01 290.55C202.86 223.8 264.38 175.38 332.43 184.54ZM193.7 430.59C193.7 418.81 193.7 324.58 193.7 312.8C172.76 312.8 157.06 329.82 157.06 349.45C157.06 349.45 157.06 393.95 157.06 393.95C157.06 414.89 174.07 430.59 193.7 430.59Z" id="eNVQO0tAl"></path><path d="M460.7 386.09C460.7 386.09 460.7 386.09 460.7 386.09C460.7 389.24 460.7 390.98 460.7 391.33C460.7 393.95 458.08 396.56 455.46 396.56C452.84 396.56 450.22 393.95 450.22 391.33C450.22 391.33 450.22 391.33 450.22 391.33C450.22 388.19 450.22 386.44 450.22 386.09C450.22 383.48 452.84 380.86 455.46 380.86C458.08 380.86 460.7 383.48 460.7 386.09Z" id="a2Dhe9RTAD"></path><path d="M460.7 365.15C460.7 365.15 460.7 365.15 460.7 365.15C460.7 368.29 460.7 370.04 460.7 370.39C460.7 373.01 458.08 375.62 455.46 375.62C452.84 375.62 450.22 373.01 450.22 370.39C450.22 370.39 450.22 370.39 450.22 370.39C450.22 367.25 450.22 365.5 450.22 365.15C450.22 362.54 452.84 359.92 455.46 359.92C458.08 359.92 460.7 362.54 460.7 365.15Z" id="aD5OQdNIV"></path><path d="M460.7 344.21C460.7 344.21 460.7 344.21 460.7 344.21C460.7 347.35 460.7 349.1 460.7 349.45C460.7 352.07 458.08 354.68 455.46 354.68C452.84 354.68 450.22 352.07 450.22 349.45C450.22 348.92 450.22 344.74 450.22 344.21C450.22 341.6 452.84 338.98 455.46 338.98C458.08 338.98 460.7 341.6 460.7 344.21Z" id="fvtxR7dwa"></path></defs><g><g><g><use xlink:href="#a7a1f62fGm" opacity="1" fill="#f1ce49" fill-opacity="1"></use><g><use xlink:href="#a7a1f62fGm" opacity="1" fill-opacity="0" stroke="#000000" stroke-width="1" stroke-opacity="0"></use></g></g><g><use xlink:href="#dZZSViTa9" opacity="1" fill="#ffffff" fill-opacity="1"></use><g><use xlink:href="#dZZSViTa9" opacity="1" fill-opacity="0" stroke="#000000" stroke-width="1" stroke-opacity="0"></use></g></g><g><use xlink:href="#dGRcYTaTI" opacity="1" fill="#ffffff" fill-opacity="1"></use><g><use xlink:href="#dGRcYTaTI" opacity="1" fill-opacity="0" stroke="#000000" stroke-width="1" stroke-opacity="0"></use></g></g><g><use xlink:href="#eNVQO0tAl" opacity="1" fill="#ffffff" fill-opacity="1"></use><g><use xlink:href="#eNVQO0tAl" opacity="1" fill-opacity="0" stroke="#000000" stroke-width="1" stroke-opacity="0"></use></g></g><g><use xlink:href="#a2Dhe9RTAD" opacity="1" fill="#ffffff" fill-opacity="1"></use><g><use xlink:href="#a2Dhe9RTAD" opacity="1" fill-opacity="0" stroke="#000000" stroke-width="1" stroke-opacity="0"></use></g></g><g><use xlink:href="#aD5OQdNIV" opacity="1" fill="#ffffff" fill-opacity="1"></use><g><use xlink:href="#aD5OQdNIV" opacity="1" fill-opacity="0" stroke="#000000" stroke-width="1" stroke-opacity="0"></use></g></g><g><use xlink:href="#fvtxR7dwa" opacity="1" fill="#ffffff" fill-opacity="1"></use><g><use xlink:href="#fvtxR7dwa" opacity="1" fill-opacity="0" stroke="#000000" stroke-width="1" stroke-opacity="0"></use></g></g></g></g></svg>