<?xml version="1.0" encoding="utf-8"?>
<!-- Generator: Adobe Illustrator 22.0.0, SVG Export Plug-In . SVG Version: 6.00 Build 0)  -->
<svg version="1.1" xmlns="http://www.w3.org/2000/svg" xmlns:xlink="http://www.w3.org/1999/xlink" x="0px" y="0px"
	 viewBox="0 0 48.9 48.9" enable-background="new 0 0 48.9 48.9" xml:space="preserve">
<g>
	
		<linearGradient id="Ellipse_17566_1_" gradientUnits="userSpaceOnUse" x1="-1288.5743" y1="14.6908" x2="-1288.5743" y2="15.6908" gradientTransform="matrix(48.874 0 0 48.874 63002.1836 -717.9995)">
		<stop  offset="0" style="stop-color:#A0ECAB"/>
		<stop  offset="1" style="stop-color:#73C59C"/>
	</linearGradient>
	<circle fill="url(#Ellipse_17566_1_)" cx="24.4" cy="24.4" r="24.4"/>
	<path fill="#FFFFFF" d="M22.1,32.7c2.2-2.3,2.2-6,0-8.4l0.6-0.6c2.7,2.6,2.8,6.9,0.2,9.5l-0.1,0.1L22.1,32.7z
		 M19.7,30.3c1-1,1-2.6,0-3.5l0.6-0.6c1.3,1.4,1.3,3.5,0,4.8L19.7,30.3z"/>
	<path id="Volume-3" fill="#FFFFFF" d="M24.5,35.1c3.6-3.6,3.7-9.4,0.1-13L24.5,22l0.6-0.7c4,4,4,10.4,0.1,14.4c0,0,0,0-0.1,0.1
		L24.5,35.1z"/>
	<path fill="#FFFFFF" d="M13.4,23.5c0-0.1,0-0.3,0-0.4c0-6,4.8-10.9,10.8-10.9s10.9,4.9,10.9,10.9
		c0,0.1,0,0.3,0,0.4c1.3,0.6,2.2,1.9,2.2,3.3v3.3c0,2-1.6,3.7-3.7,3.7v0.8c0,0.2-0.2,0.4-0.4,0.4l0,0h-1.6c-0.2,0-0.4-0.2-0.4-0.4
		l0,0V22.4c0-0.2,0.2-0.4,0.4-0.4l0,0h1.1c-0.8-4.7-5.2-7.8-9.9-7.1c-3.6,0.6-6.4,3.4-7,7.1h1.1c0.2,0,0.4,0.2,0.4,0.4l0,0v12.2
		c0,0.2-0.2,0.4-0.4,0.4h-1.6c-0.2,0-0.4-0.2-0.4-0.4l0,0v-0.8c-2,0-3.7-1.6-3.7-3.7v-3.3C11.2,25.4,12,24.1,13.4,23.5z M33.6,33
		c1.6,0,2.8-1.3,2.9-2.8v-3.3c0-1.6-1.3-2.8-2.9-2.8V33z M32,22.8v11.4h0.8V22.8H32z M15.7,34.2h0.8V22.8h-0.8V34.2z M14.9,22.2
		c0.6-5.1,5.3-8.8,10.5-8.1c4.3,0.5,7.6,3.9,8.2,8.2c0,0.1,0,0.1,0,0.2v0.2c0,0.2,0,0.4,0,0.6c0.2,0,0.4,0,0.7,0.1
		c0-0.1,0-0.1,0-0.2c-0.1-5.6-4.6-10-10.2-10c-5.5,0-9.9,4.4-9.9,9.9c0,0.1,0,0.1,0,0.2c0.2-0.1,0.4-0.1,0.6-0.1c0-0.2,0-0.4,0-0.6
		v-0.2C14.9,22.3,14.9,22.3,14.9,22.2z M12,30.1c0,1.6,1.3,2.8,2.8,2.8v-9c-1.6,0-2.8,1.3-2.8,2.8C12,26.7,12,30.1,12,30.1z"/>
	<path fill="#FFFFFF" d="M34.8,29.1c0.2,0,0.4,0.2,0.4,0.4l0,0v0.4c0,0.2-0.2,0.4-0.4,0.4s-0.4-0.2-0.4-0.4l0,0
		v-0.4C34.4,29.3,34.6,29.1,34.8,29.1z"/>
	<path fill="#FFFFFF" d="M34.8,27.5c0.2,0,0.4,0.2,0.4,0.4l0,0v0.4c0,0.2-0.2,0.4-0.4,0.4s-0.4-0.2-0.4-0.4l0,0
		v-0.4C34.4,27.7,34.6,27.5,34.8,27.5z"/>
	<path fill="#FFFFFF" d="M34.8,25.9c0.2,0,0.4,0.2,0.4,0.4l0,0v0.4c0,0.2-0.2,0.4-0.4,0.4s-0.4-0.2-0.4-0.4v-0.4
		C34.4,26.1,34.6,25.9,34.8,25.9z"/>
</g>
</svg>
